<?xml version="1.0" standalone="no"?>
<!DOCTYPE svg PUBLIC "-//W3C//DTD SVG 20010904//EN"
 "http://www.w3.org/TR/2001/REC-SVG-20010904/DTD/svg10.dtd">
<svg version="1.0" xmlns="http://www.w3.org/2000/svg"
 width="942.000000pt" height="482.000000pt" viewBox="0 0 942.000000 482.000000"
 preserveAspectRatio="xMidYMid meet">

<g transform="translate(0.000000,482.000000) scale(0.100000,-0.100000)"
fill="#000000" stroke="none">
<path d="M805 4015 l-25 -24 0 -1584 0 -1584 23 -21 c22 -21 32 -22 224 -22
l200 0 74 -61 c122 -100 257 -158 494 -214 120 -28 216 -40 435 -57 242 -19
4699 -19 4950 0 247 18 354 35 520 83 168 48 259 91 387 183 l92 66 209 0
c205 0 209 0 230 23 l22 23 0 1583 0 1582 -25 24 -24 25 -3881 0 -3881 0 -24
-25z m1051 -396 c45 -21 84 -81 84 -129 0 -13 -9 -43 -21 -66 -21 -45 -81 -84
-129 -84 -48 0 -108 39 -129 84 -26 53 -26 79 0 132 14 30 32 48 62 63 53 26
80 26 133 0z m481 10 c67 -25 111 -99 98 -165 -8 -45 -57 -100 -101 -114 -100
-33 -209 62 -190 165 12 62 82 124 143 125 12 0 34 -5 50 -11z m-970 -19 c87
-52 83 -198 -6 -245 -98 -50 -211 16 -211 123 0 85 56 142 140 142 27 0 58 -8
77 -20z m1803 -659 c0 -5 -9 -11 -20 -14 -15 -4 -20 -14 -20 -39 0 -19 -5 -39
-12 -46 -9 -9 -9 -15 0 -24 7 -7 12 -30 12 -51 0 -30 4 -40 20 -44 26 -7 26
-23 1 -23 -28 0 -51 38 -51 82 0 27 -4 38 -15 38 -8 0 -15 5 -15 10 0 6 6 10
14 10 8 0 15 16 19 40 3 23 11 47 17 55 13 16 50 20 50 6z m-1444 -86 c-9 -43
-16 -79 -16 -81 0 -2 17 -4 38 -5 34 0 35 -1 13 -10 -56 -22 -70 3 -51 91 19
86 21 92 26 87 3 -3 -1 -40 -10 -82z m355 35 c16 0 29 -4 29 -10 0 -5 -15 -10
-34 -10 -30 0 -34 -4 -40 -31 -11 -57 -8 -69 19 -69 14 0 25 -4 25 -10 0 -12
-30 -13 -49 -1 -10 7 -12 22 -8 60 6 46 4 51 -14 51 -11 0 -17 5 -14 10 3 6
15 10 26 10 11 0 19 7 20 18 1 16 2 16 6 0 3 -12 14 -18 34 -18z m-145 -14
c28 -21 8 -49 -45 -60 -55 -13 -52 -39 4 -46 36 -5 37 -6 15 -12 -35 -10 -68
0 -75 22 -9 29 5 69 32 90 31 24 43 25 69 6z m420 3 c4 -6 11 -5 21 3 12 10
18 9 29 -7 16 -22 19 -125 4 -125 -5 0 -10 24 -10 54 0 30 -4 57 -9 61 -15 9
-31 -29 -31 -74 0 -23 -4 -41 -10 -41 -6 0 -10 27 -10 60 0 33 -4 60 -9 60
-14 0 -21 -27 -21 -76 0 -24 -4 -44 -10 -44 -6 0 -10 29 -10 68 l0 67 30 2
c16 1 32 -2 36 -8z m187 -1 c9 -7 19 -25 23 -40 6 -28 6 -28 -45 -28 -28 0
-51 -4 -51 -9 0 -18 31 -33 60 -29 32 5 41 -6 14 -16 -53 -20 -94 8 -94 65 0
56 52 88 93 57z m327 -28 c0 -5 -25 -10 -55 -10 -30 0 -55 5 -55 10 0 6 25 10
55 10 30 0 55 -4 55 -10z m0 -50 c0 -5 -25 -10 -55 -10 -30 0 -55 5 -55 10 0
6 25 10 55 10 30 0 55 -4 55 -10z m396 -256 c-3 -9 -6 -22 -6 -30 0 -27 -18
-14 -22 16 -4 25 -1 30 15 30 13 0 17 -5 13 -16z m54 -14 c0 -20 -5 -30 -15
-30 -10 0 -15 10 -15 30 0 20 5 30 15 30 10 0 15 -10 15 -30z m850 -27 l0 -57
33 32 c44 43 71 42 29 -1 l-32 -33 30 -29 c33 -32 38 -45 15 -45 -8 0 -24 14
-37 30 -12 17 -25 30 -30 30 -4 0 -8 -13 -8 -30 0 -16 -4 -30 -10 -30 -6 0
-10 38 -10 95 0 57 4 95 10 95 6 0 10 -26 10 -57z m1700 0 l1 -58 27 33 c15
18 36 32 46 32 17 0 15 -5 -14 -35 l-34 -35 34 -35 c43 -44 18 -47 -27 -3
l-33 32 0 -32 c0 -22 -5 -32 -15 -32 -12 0 -15 17 -15 95 0 78 3 95 15 95 12
0 15 -13 15 -57z m166 41 c-3 -9 -6 -22 -6 -30 0 -27 -18 -14 -22 16 -4 25 -1
30 15 30 13 0 17 -5 13 -16z m54 -14 c0 -20 -5 -30 -15 -30 -10 0 -15 10 -15
30 0 20 5 30 15 30 10 0 15 -10 15 -30z m-2619 10 c28 -15 26 -74 -3 -94 -12
-9 -33 -16 -45 -16 -19 0 -23 -5 -23 -30 0 -16 -4 -30 -10 -30 -6 0 -10 37
-10 90 l0 90 36 0 c19 0 44 -5 55 -10z m259 -10 c0 -16 7 -20 35 -20 19 0 35
-4 35 -10 0 -5 -16 -10 -35 -10 -32 0 -35 -2 -35 -31 0 -44 17 -69 45 -69 14
0 25 -4 25 -10 0 -14 -64 -12 -78 2 -7 7 -12 34 -12 60 0 41 -3 48 -20 48 -11
0 -20 5 -20 10 0 6 9 10 20 10 13 0 20 7 20 20 0 11 5 20 10 20 6 0 10 -9 10
-20z m1220 -60 l0 -80 40 0 c22 0 40 -4 40 -10 0 -5 -25 -10 -55 -10 l-55 0 0
90 c0 73 3 90 15 90 12 0 15 -16 15 -80z m-2550 20 c5 -10 10 -41 10 -69 0
-39 -4 -51 -15 -51 -11 0 -15 13 -15 54 0 60 -9 73 -40 56 -16 -9 -20 -21 -20
-60 0 -28 -4 -50 -10 -50 -6 0 -10 29 -10 68 l0 68 45 2 c35 1 47 -3 55 -18z
m148 8 c7 -7 12 -37 12 -68 l0 -57 -32 -1 c-59 -2 -78 6 -78 33 0 27 25 45 64
45 14 0 26 4 26 9 0 18 -30 33 -55 27 -24 -6 -33 3 -18 17 11 12 68 8 81 -5z
m174 -2 c4 -6 8 -37 8 -68 0 -45 -3 -58 -15 -58 -12 0 -15 14 -15 63 -1 57 -2
60 -15 43 -8 -11 -15 -39 -15 -63 0 -24 -4 -43 -10 -43 -6 0 -10 27 -10 60 0
33 -4 60 -9 60 -14 0 -21 -27 -21 -76 0 -32 -4 -44 -15 -44 -12 0 -15 14 -15
68 l0 68 63 1 c35 0 65 -4 69 -11z m138 -6 c11 -11 20 -29 20 -40 0 -17 -7
-20 -50 -20 -27 0 -50 -4 -50 -9 0 -19 31 -33 60 -27 31 6 42 -7 14 -18 -74
-28 -132 45 -84 107 26 32 62 35 90 7z m130 0 c0 -13 -7 -20 -20 -20 -19 0
-27 20 -13 33 13 14 33 6 33 -13z m638 8 c7 -7 12 -37 12 -68 l0 -57 -52 1
c-48 1 -53 3 -56 25 -4 29 20 51 56 51 17 0 23 5 20 18 -2 12 -13 17 -36 17
-31 0 -39 5 -25 18 11 12 68 8 81 -5z m312 2 c0 -5 -16 -10 -35 -10 -40 0 -49
-24 -12 -36 24 -7 57 -33 57 -45 0 -4 -7 -15 -16 -23 -19 -19 -94 -22 -94 -3
0 7 14 12 37 12 48 0 53 20 9 35 -42 14 -57 47 -30 67 21 15 84 18 84 3z m148
-2 c7 -7 12 -37 12 -68 l0 -57 -32 -1 c-59 -2 -78 6 -78 33 0 27 25 45 64 45
14 0 26 4 26 9 0 18 -30 33 -55 27 -24 -6 -33 3 -18 17 11 12 68 8 81 -5z
m316 -10 c34 -49 5 -118 -49 -118 -34 0 -65 33 -65 70 0 62 81 96 114 48z m76
12 c0 -7 7 -7 21 0 29 16 69 4 69 -20 0 -25 -9 -25 -26 -2 -23 31 -49 3 -52
-57 -2 -36 -7 -51 -18 -51 -11 0 -14 16 -14 70 0 40 4 70 10 70 6 0 10 -5 10
-10z m150 -2 c0 -9 3 -9 12 0 18 18 56 14 68 -7 5 -11 10 -42 10 -70 0 -39 -4
-51 -15 -51 -12 0 -15 13 -15 55 0 40 -4 57 -15 61 -27 11 -45 -16 -45 -67 0
-27 -4 -49 -10 -49 -6 0 -10 30 -10 70 0 40 4 70 10 70 6 0 10 -5 10 -12z
m533 0 c9 -7 19 -25 23 -40 6 -28 6 -28 -45 -28 -28 0 -51 -4 -51 -9 0 -19 31
-33 60 -27 31 6 42 -7 14 -18 -48 -18 -90 2 -100 49 -11 59 54 107 99 73z m87
1 c0 -8 4 -8 14 1 20 15 56 9 70 -12 15 -24 -3 -37 -20 -14 -12 16 -18 18 -39
8 -22 -10 -25 -18 -25 -62 0 -27 -4 -50 -10 -50 -6 0 -10 30 -10 70 0 40 4 70
10 70 6 0 10 -5 10 -11z m230 1 c0 -5 -16 -10 -35 -10 -40 0 -49 -24 -12 -36
24 -7 57 -33 57 -45 0 -4 -7 -15 -16 -23 -19 -19 -94 -22 -94 -3 0 7 14 12 37
12 48 0 53 20 9 35 -42 14 -57 47 -30 67 21 15 84 18 84 3z m150 1 c0 -6 -14
-11 -32 -13 -45 -4 -45 -22 2 -41 45 -17 54 -49 20 -67 -25 -13 -87 -9 -80 5
3 5 20 8 38 6 45 -4 43 24 -3 43 -36 16 -46 41 -23 64 14 14 78 16 78 3z m80
-46 c0 -40 4 -57 15 -61 27 -11 45 16 45 67 0 37 4 49 15 49 12 0 15 -14 15
-68 l0 -69 -50 -1 c-46 -1 -52 2 -60 24 -16 41 -13 114 5 114 12 0 15 -13 15
-55z m-2720 -66 c0 -14 -5 -19 -17 -17 -26 5 -29 38 -4 38 15 0 21 -6 21 -21z
m3230 -8 c0 -32 -22 -61 -46 -61 -19 0 -18 16 2 24 12 4 14 14 9 36 -6 26 -4
30 14 30 17 0 21 -6 21 -29z m-2905 -201 c-3 -5 -15 -10 -26 -10 -18 0 -19 -8
-19 -105 0 -97 1 -105 19 -105 11 0 23 -4 26 -10 4 -6 -8 -10 -29 -10 l-36 0
0 125 0 125 36 0 c21 0 33 -4 29 -10z m3675 -16 c0 -17 -26 -19 -36 -3 -7 12
15 31 28 23 4 -3 8 -12 8 -20z m940 -99 l0 -125 -35 0 c-19 0 -35 5 -35 10 0
6 9 10 20 10 19 0 20 7 20 105 0 98 -1 105 -20 105 -11 0 -20 5 -20 10 0 6 16
10 35 10 l35 0 0 -125z m-5210 20 c0 -78 -3 -95 -15 -95 -8 0 -15 5 -15 12 0
9 -3 9 -12 0 -18 -18 -56 -14 -68 7 -5 11 -10 35 -10 55 0 39 28 66 67 66 18
0 23 6 23 25 0 16 6 25 15 25 12 0 15 -17 15 -95z m700 65 c0 -20 -5 -30 -15
-30 -10 0 -15 10 -15 30 0 20 5 30 15 30 10 0 15 -10 15 -30z m50 0 c0 -32
-14 -40 -24 -14 -10 27 -7 44 9 44 10 0 15 -10 15 -30z m80 -7 c0 -29 3 -34
12 -25 7 7 21 12 33 12 12 0 26 -5 33 -12 14 -14 16 -128 2 -128 -5 0 -10 20
-10 44 0 75 -15 92 -52 59 -12 -11 -18 -30 -18 -60 0 -23 -4 -43 -10 -43 -6 0
-10 38 -10 95 0 57 4 95 10 95 6 0 10 -17 10 -37z m510 -48 c0 -78 2 -85 20
-85 11 0 20 -4 20 -10 0 -5 -25 -10 -55 -10 -30 0 -55 5 -55 10 0 6 11 10 25
10 24 0 25 2 25 75 0 68 -2 75 -20 75 -11 0 -20 5 -20 10 0 6 14 10 30 10 l30
0 0 -85z m130 55 c0 -20 -5 -30 -15 -30 -10 0 -15 10 -15 30 0 20 5 30 15 30
10 0 15 -10 15 -30z m50 0 c0 -32 -14 -40 -24 -14 -10 27 -7 44 9 44 10 0 15
-10 15 -30z m410 0 c0 -20 -5 -30 -15 -30 -10 0 -15 10 -15 30 0 20 5 30 15
30 10 0 15 -10 15 -30z m50 0 c0 -32 -14 -40 -24 -14 -10 27 -7 44 9 44 10 0
15 -10 15 -30z m570 0 c0 -20 -5 -30 -15 -30 -10 0 -15 10 -15 30 0 20 5 30
15 30 10 0 15 -10 15 -30z m50 0 c0 -20 -5 -30 -15 -30 -10 0 -15 10 -15 30 0
20 5 30 15 30 10 0 15 -10 15 -30z m410 0 c0 -20 -5 -30 -15 -30 -10 0 -15 10
-15 30 0 20 5 30 15 30 10 0 15 -10 15 -30z m50 0 c0 -32 -14 -40 -24 -14 -10
27 -7 44 9 44 10 0 15 -10 15 -30z m1640 0 c0 -32 -14 -40 -24 -14 -10 27 -7
44 9 44 10 0 15 -10 15 -30z m58 3 c-4 -39 -28 -42 -28 -4 0 21 5 31 16 31 11
0 14 -8 12 -27z m-3748 -3 c0 -16 7 -20 35 -20 19 0 35 -4 35 -10 0 -5 -16
-10 -35 -10 -32 0 -35 -2 -35 -31 0 -44 17 -69 45 -69 14 0 25 -4 25 -10 0
-14 -64 -12 -78 2 -7 7 -12 34 -12 60 0 41 -3 48 -20 48 -11 0 -20 5 -20 10 0
6 9 10 20 10 13 0 20 7 20 20 0 11 5 20 10 20 6 0 10 -9 10 -20z m2210 -53 c0
-84 -17 -111 -66 -105 -40 5 -42 26 -2 25 l33 -2 3 68 3 67 -36 0 c-19 0 -35
5 -35 10 0 6 23 10 50 10 l50 0 0 -73z m1330 53 c0 -16 7 -20 35 -20 19 0 35
-4 35 -10 0 -5 -16 -10 -35 -10 -32 0 -35 -2 -35 -31 0 -44 17 -69 45 -69 14
0 25 -4 25 -10 0 -14 -64 -12 -78 2 -7 7 -12 34 -12 60 0 41 -3 48 -20 48 -11
0 -20 5 -20 10 0 6 9 10 20 10 13 0 20 7 20 20 0 11 5 20 10 20 6 0 10 -9 10
-20z m-4870 -34 c0 -8 -8 -12 -23 -9 -27 5 -57 -19 -57 -47 0 -28 30 -52 57
-47 15 3 23 -1 23 -9 0 -20 -59 -18 -82 3 -27 24 -24 87 4 107 28 20 78 21 78
2z m152 -3 c24 -22 24 -77 -2 -103 -41 -41 -110 -10 -110 50 0 58 69 92 112
53z m308 -3 c11 -11 20 -29 20 -40 0 -17 -7 -20 -50 -20 -27 0 -50 -4 -50 -9
0 -19 31 -33 60 -27 31 6 42 -7 14 -18 -74 -28 -132 45 -84 107 26 32 62 35
90 7z m130 0 c0 -13 -7 -20 -20 -20 -19 0 -27 20 -13 33 13 14 33 6 33 -13z
m908 8 c8 -7 12 -7 12 1 0 17 37 13 44 -5 3 -9 6 -40 6 -70 0 -41 -4 -54 -15
-54 -12 0 -15 14 -15 63 -1 57 -2 60 -15 43 -8 -11 -15 -39 -15 -63 0 -24 -4
-43 -10 -43 -6 0 -10 27 -10 61 0 54 -2 60 -15 49 -10 -8 -15 -30 -15 -61 0
-27 -4 -49 -10 -49 -6 0 -10 30 -10 69 0 68 0 69 28 69 15 0 33 -5 40 -10z
m969 -4 c2 -7 -6 -10 -22 -7 -33 7 -55 -12 -55 -47 0 -35 22 -54 55 -47 16 3
24 0 22 -7 -7 -21 -64 -19 -86 3 -45 45 -10 125 52 119 17 -2 32 -8 34 -14z
m153 6 c0 -5 -16 -10 -35 -10 -40 0 -49 -24 -12 -36 24 -7 57 -33 57 -45 0 -4
-7 -15 -16 -23 -19 -19 -94 -22 -94 -3 0 7 14 12 37 12 48 0 53 20 9 35 -42
14 -57 47 -30 67 21 15 84 18 84 3z m150 1 c0 -6 -14 -11 -32 -13 -45 -4 -45
-22 2 -41 69 -27 47 -77 -34 -77 -20 0 -36 5 -36 10 0 6 18 10 40 10 52 0 53
22 3 47 -43 21 -50 35 -28 57 17 17 85 22 85 7z m919 0 c9 -6 16 -32 19 -69
l4 -59 -48 -1 c-50 0 -74 10 -74 34 0 22 30 44 61 44 24 0 30 4 27 18 -3 13
-13 17 -41 16 -36 -1 -49 9 -24 19 20 9 61 7 76 -2z m80 -13 c5 -13 14 -36 21
-53 l12 -30 20 53 c12 28 27 52 34 52 10 0 7 -17 -11 -65 -14 -36 -25 -68 -25
-70 0 -3 -7 -5 -15 -5 -15 0 -48 63 -61 116 -8 31 13 32 25 2z m229 10 c7 -7
12 -37 12 -68 l0 -57 -32 -1 c-59 -2 -78 6 -78 33 0 27 25 45 64 45 14 0 26 4
26 9 0 18 -30 33 -55 27 -24 -6 -33 3 -18 17 11 12 68 8 81 -5z m162 2 c0 -5
-16 -10 -35 -10 -40 0 -49 -24 -12 -36 24 -7 57 -33 57 -45 0 -4 -7 -15 -16
-23 -19 -19 -94 -22 -94 -3 0 7 14 12 37 12 48 0 53 20 9 35 -42 14 -57 47
-30 67 21 15 84 18 84 3z m157 -6 c2 -7 -6 -10 -22 -7 -33 7 -55 -12 -55 -47
0 -35 22 -54 55 -47 16 3 24 0 22 -7 -7 -21 -64 -19 -86 3 -46 46 -11 125 51
119 17 -2 33 -8 35 -14z m73 6 c0 -7 7 -7 21 0 29 16 69 4 69 -20 0 -25 -9
-25 -26 -2 -23 31 -49 3 -52 -57 -2 -36 -7 -51 -18 -51 -11 0 -14 16 -14 70 0
40 4 70 10 70 6 0 10 -5 10 -10z m200 -50 c0 -53 2 -60 20 -60 11 0 20 -4 20
-10 0 -5 -25 -10 -55 -10 -30 0 -55 5 -55 10 0 6 9 10 20 10 17 0 20 7 20 50
0 43 -3 50 -20 50 -11 0 -20 5 -20 10 0 6 16 10 35 10 l35 0 0 -60z m190 40
c30 -46 -4 -120 -55 -120 -20 0 -25 -5 -25 -25 0 -16 -6 -25 -15 -25 -12 0
-15 17 -15 93 l0 94 50 -1 c33 -1 54 -6 60 -16z m-4190 -101 c0 -14 -5 -19
-17 -17 -26 5 -29 38 -4 38 15 0 21 -6 21 -21z m1385 10 c12 -19 -5 -60 -30
-71 -33 -15 -45 -2 -17 18 17 12 20 19 12 33 -5 10 -6 21 -3 25 10 9 31 7 38
-5z m1075 -18 c0 -32 -22 -61 -46 -61 -19 0 -18 16 2 24 12 4 14 14 9 36 -6
26 -4 30 14 30 17 0 21 -6 21 -29z m2160 2 c0 -31 -26 -63 -52 -63 -25 0 -23
16 3 23 18 5 20 11 14 36 -6 27 -4 31 14 31 16 0 21 -6 21 -27z m460 -2 c0
-32 -22 -61 -46 -61 -19 0 -18 16 2 24 12 4 14 14 9 36 -6 26 -4 30 14 30 17
0 21 -6 21 -29z m-4910 -201 c0 -5 -9 -10 -20 -10 -19 0 -20 -7 -20 -105 0
-98 1 -105 20 -105 11 0 20 -4 20 -10 0 -5 -16 -10 -35 -10 l-35 0 0 125 0
125 35 0 c19 0 35 -4 35 -10z m1230 -115 l0 -125 -35 0 c-19 0 -35 5 -35 10 0
6 9 10 20 10 19 0 20 7 20 105 0 98 -1 105 -20 105 -11 0 -20 5 -20 10 0 6 16
10 35 10 l35 0 0 -125z m-1760 85 c0 -27 2 -29 30 -24 41 9 60 -10 60 -59 0
-49 -22 -77 -61 -77 -56 0 -59 5 -59 101 0 72 3 89 15 89 10 0 15 -10 15 -30z
m636 14 c-3 -9 -6 -22 -6 -30 0 -27 -18 -14 -22 16 -4 25 -1 30 15 30 13 0 17
-5 13 -16z m54 -14 c0 -20 -5 -30 -15 -30 -10 0 -15 10 -15 30 0 20 5 30 15
30 10 0 15 -10 15 -30z m870 0 c0 -20 -5 -30 -15 -30 -10 0 -15 10 -15 30 0
20 5 30 15 30 10 0 15 -10 15 -30z m50 0 c0 -32 -14 -40 -24 -14 -10 27 -7 44
9 44 10 0 15 -10 15 -30z m-765 -4 c13 -19 14 -29 5 -45 -6 -12 -15 -21 -20
-21 -5 0 3 -20 17 -45 20 -37 22 -45 9 -45 -9 0 -24 17 -33 37 -10 21 -26 39
-36 41 -14 3 -17 -4 -17 -37 0 -23 -4 -41 -10 -41 -6 0 -10 37 -10 90 l0 90
40 0 c31 0 43 -5 55 -24z m565 4 c0 -16 7 -20 30 -20 17 0 30 -4 30 -10 0 -5
-14 -10 -31 -10 -30 0 -30 -1 -27 -47 3 -44 5 -48 31 -51 36 -4 35 -22 -1 -22
-40 0 -52 17 -52 72 0 41 -3 48 -20 48 -11 0 -20 5 -20 10 0 6 9 10 20 10 13
0 20 7 20 20 0 11 5 20 10 20 6 0 10 -9 10 -20z m-1732 -68 c4 -49 17 -55 26
-11 7 39 26 34 41 -12 l12 -34 7 53 c4 28 11 52 16 52 12 0 12 -16 4 -87 -8
-63 -35 -74 -51 -20 l-10 32 -13 -32 c-15 -40 -37 -43 -44 -5 -17 90 -18 114
-5 110 8 -3 15 -22 17 -46z m246 26 c30 -43 21 -58 -34 -58 -27 0 -50 -4 -50
-9 0 -19 31 -33 61 -27 22 4 29 2 27 -7 -7 -19 -73 -21 -92 -2 -21 21 -21 83
1 107 23 25 68 23 87 -4z m284 5 c5 -17 -26 -29 -40 -15 -6 6 -7 15 -3 22 9
14 37 9 43 -7z m785 5 c9 -7 19 -25 23 -40 6 -28 6 -28 -45 -28 -28 0 -51 -4
-51 -9 0 -19 31 -33 60 -27 31 6 42 -7 14 -18 -48 -18 -90 2 -100 49 -11 59
54 107 99 73z m156 3 c9 -6 16 -32 19 -69 l4 -59 -48 -1 c-50 0 -74 10 -74 34
0 22 30 44 61 44 24 0 30 4 27 18 -3 13 -13 17 -41 16 -36 -1 -49 9 -24 19 20
9 61 7 76 -2z m158 -7 c2 -7 -5 -10 -20 -7 -27 5 -57 -19 -57 -47 0 -28 30
-52 57 -47 15 3 22 0 20 -7 -6 -19 -57 -19 -78 0 -28 25 -26 88 4 109 24 17
68 17 74 -1z m-1099 -101 c5 -17 -26 -29 -40 -15 -6 6 -7 15 -3 22 9 14 37 9
43 -7z m-1100 -215 c7 -7 12 -24 12 -39 0 -38 10 -59 26 -59 8 0 14 -4 14 -10
0 -5 -6 -10 -14 -10 -17 0 -26 -22 -26 -64 0 -36 -15 -56 -42 -56 -24 0 -23
16 2 23 16 4 20 14 20 45 0 23 5 44 10 47 7 4 7 12 0 25 -5 10 -10 33 -10 50
0 23 -5 33 -20 37 -11 3 -20 9 -20 14 0 13 34 11 48 -3z"/>
<path d="M1884 2880 c-24 -9 -38 -36 -23 -45 15 -10 67 5 73 20 7 20 -24 35
-50 25z"/>
<path d="M2482 2868 c-20 -20 -14 -28 24 -28 28 0 35 3 32 18 -4 21 -39 27
-56 10z"/>
<path d="M3400 2500 c0 -39 2 -41 26 -38 15 2 32 11 38 21 15 24 -3 51 -38 55
-24 3 -26 1 -26 -38z"/>
<path d="M2480 2425 c-10 -12 -9 -16 3 -21 17 -6 57 12 57 26 0 16 -46 12 -60
-5z"/>
<path d="M2792 2488 c-20 -20 -14 -28 24 -28 29 0 35 3 30 16 -3 9 -6 18 -6
20 0 9 -37 3 -48 -8z"/>
<path d="M3554 2429 c-10 -17 12 -32 35 -24 29 9 27 35 -3 35 -14 0 -28 -5
-32 -11z"/>
<path d="M4016 2425 c-3 -9 1 -18 8 -21 17 -6 56 12 56 26 0 17 -57 11 -64 -5z"/>
<path d="M4332 2488 c-7 -7 -12 -27 -12 -44 0 -35 22 -50 54 -38 22 8 22 79 0
88 -22 8 -28 8 -42 -6z"/>
<path d="M5102 2488 c-20 -20 -14 -28 24 -28 28 0 35 3 32 18 -4 21 -39 27
-56 10z"/>
<path d="M2636 2104 c-9 -8 -16 -22 -16 -30 0 -20 19 -54 30 -54 19 0 40 33
40 66 0 27 -4 34 -19 34 -11 0 -27 -7 -35 -16z"/>
<path d="M2482 2108 c-17 -17 -15 -63 3 -78 18 -15 55 -4 57 18 5 60 -27 93
-60 60z"/>
<path d="M2792 2108 c-20 -20 -14 -28 24 -28 29 0 35 3 30 16 -3 9 -6 18 -6
20 0 9 -37 3 -48 -8z"/>
<path d="M6027 2053 c-14 -13 -7 -33 11 -33 19 0 42 18 42 32 0 10 -44 11 -53
1z"/>
<path d="M6326 2045 c-3 -9 1 -18 8 -21 17 -6 56 12 56 26 0 17 -57 11 -64 -5z"/>
<path d="M7112 2108 c-6 -6 -12 -29 -12 -51 0 -36 2 -38 28 -35 25 3 27 6 27
48 0 47 -18 63 -43 38z"/>
<path d="M2648 1729 c-12 -7 -18 -22 -18 -49 0 -36 3 -40 25 -40 34 0 53 39
37 75 -13 27 -19 29 -44 14z"/>
<path d="M3400 1750 c0 -23 5 -30 19 -30 24 0 45 25 37 45 -3 8 -17 15 -31 15
-21 0 -25 -5 -25 -30z"/>
<path d="M2480 1721 c-10 -19 -8 -21 25 -21 29 0 36 3 33 18 -5 25 -44 27 -58
3z"/>
<path d="M3562 1728 c-20 -20 -14 -28 24 -28 28 0 35 3 32 18 -4 21 -39 27
-56 10z"/>
<path d="M3717 1673 c-14 -13 -7 -33 11 -33 19 0 42 18 42 32 0 10 -44 11 -53
1z"/>
</g>
</svg>
